<svg xmlns="http://www.w3.org/2000/svg" viewBox="0 0 100 100" preserveAspectRatio="xMidYMid" style="shape-rendering: auto; display: block; background: transparent;" width="359" height="359" xmlns:xlink="http://www.w3.org/1999/xlink"><g><g transform="rotate(0 50 50)">
  <rect fill="#ffffff" height="13" width="6" ry="3.12" rx="3" y="25.5" x="47">
    <animate repeatCount="indefinite" begin="-0.24787535410764874s" dur="0.28328611898017s" keyTimes="0;1" values="1;0" attributeName="opacity"></animate>
  </rect>
</g><g transform="rotate(45 50 50)">
  <rect fill="#ffffff" height="13" width="6" ry="3.12" rx="3" y="25.5" x="47">
    <animate repeatCount="indefinite" begin="-0.21246458923512748s" dur="0.28328611898017s" keyTimes="0;1" values="1;0" attributeName="opacity"></animate>
  </rect>
</g><g transform="rotate(90 50 50)">
  <rect fill="#ffffff" height="13" width="6" ry="3.12" rx="3" y="25.5" x="47">
    <animate repeatCount="indefinite" begin="-0.17705382436260625s" dur="0.28328611898017s" keyTimes="0;1" values="1;0" attributeName="opacity"></animate>
  </rect>
</g><g transform="rotate(135 50 50)">
  <rect fill="#ffffff" height="13" width="6" ry="3.12" rx="3" y="25.5" x="47">
    <animate repeatCount="indefinite" begin="-0.141643059490085s" dur="0.28328611898017s" keyTimes="0;1" values="1;0" attributeName="opacity"></animate>
  </rect>
</g><g transform="rotate(180 50 50)">
  <rect fill="#ffffff" height="13" width="6" ry="3.12" rx="3" y="25.5" x="47">
    <animate repeatCount="indefinite" begin="-0.10623229461756374s" dur="0.28328611898017s" keyTimes="0;1" values="1;0" attributeName="opacity"></animate>
  </rect>
</g><g transform="rotate(225 50 50)">
  <rect fill="#ffffff" height="13" width="6" ry="3.12" rx="3" y="25.5" x="47">
    <animate repeatCount="indefinite" begin="-0.0708215297450425s" dur="0.28328611898017s" keyTimes="0;1" values="1;0" attributeName="opacity"></animate>
  </rect>
</g><g transform="rotate(270 50 50)">
  <rect fill="#ffffff" height="13" width="6" ry="3.12" rx="3" y="25.5" x="47">
    <animate repeatCount="indefinite" begin="-0.03541076487252125s" dur="0.28328611898017s" keyTimes="0;1" values="1;0" attributeName="opacity"></animate>
  </rect>
</g><g transform="rotate(315 50 50)">
  <rect fill="#ffffff" height="13" width="6" ry="3.12" rx="3" y="25.5" x="47">
    <animate repeatCount="indefinite" begin="0s" dur="0.28328611898017s" keyTimes="0;1" values="1;0" attributeName="opacity"></animate>
  </rect>
</g><g></g></g><!-- [ldio] generated by https://loading.io --></svg>